<?xml version="1.0" encoding="UTF-8" standalone="no" ?>
<!DOCTYPE svg PUBLIC "-//W3C//DTD SVG 1.1//EN" "http://www.w3.org/Graphics/SVG/1.1/DTD/svg11.dtd">
<svg xmlns="http://www.w3.org/2000/svg" xmlns:xlink="http://www.w3.org/1999/xlink" version="1.1" width="206.0862457724915" height="124.55298759864712" viewBox="160.1818676954762 70.12100238723065 206.0862457724915 124.55298759864712" xml:space="preserve">
<desc>Created with Fabric.js 5.3.0</desc>
<defs>
</defs>
<g transform="matrix(1 0 0 1 263.9749905818 133.1474961866)" id="HZkltPQ9cq0NEUiUzcNzb"  >
<path style="stroke: rgb(110,210,255); stroke-width: 4; stroke-dasharray: none; stroke-linecap: butt; stroke-dashoffset: 0; stroke-linejoin: miter; stroke-miterlimit: 4; fill: rgb(110,210,255); fill-opacity: 0.27; fill-rule: nonzero; opacity: 1;"  transform=" translate(0, 0)" d="M -97.40776 -1.59063 C -99.2474 0.11311000000000004 -100.29312999999999 2.5068900000000003 -100.29312999999999 5.01428 L -100.29312999999999 55.42572 L -100.29312999999999 55.42572 C -100.29312999999999 57.690509999999996 -98.45714999999998 59.526489999999995 -96.19236 59.526489999999995 L 91.81039 59.526489999999995 L 91.81039 59.526489999999995 C 96.49527 59.526489999999995 100.29312 55.72864 100.29312 51.04375999999999 L 100.29312 -19.308480000000003 L 100.29312 -55.35043 L 100.29312 -55.35043 C 100.29312 -56.45799 99.85314 -57.52019 99.06998 -58.303360000000005 C 98.28681 -59.08653 97.22461 -59.526500000000006 96.11705 -59.526500000000006 L -30.577249999999992 -59.526500000000006 L -30.577249999999992 -59.526500000000006 C -33.324459999999995 -59.526500000000006 -35.97042999999999 -58.48946000000001 -37.98601999999999 -56.62276000000001 z" stroke-linecap="round" />
</g>
<g transform="matrix(1 0 0 1 183.5513772558 89.5813198475)" id="4fGj7AhE3z4itqGG_u982"  >
<path style="stroke: rgb(110,210,255); stroke-width: 4; stroke-dasharray: none; stroke-linecap: butt; stroke-dashoffset: 0; stroke-linejoin: miter; stroke-miterlimit: 4; fill: rgb(255,255,255); fill-opacity: 0; fill-rule: nonzero; opacity: 1;"  transform=" translate(0, 0)" d="M -21.36951 17.46032 L -21.36951 -12.46491 C -21.36951 -15.2238 -19.13299 -17.46032 -16.3741 -17.46032 L 21.36951 -17.46032" stroke-linecap="round" />
</g>
</svg>